<svg width="166" height="155" viewBox="0 0 166 155" fill="none" xmlns="http://www.w3.org/2000/svg">
<path fill-rule="evenodd" clip-rule="evenodd" d="M47.7151 2.0146C42.6652 4.52028 40.3553 8.63256 37.3584 20.4565C34.0619 33.4609 34.5517 32.93 25.8518 32.93C19.9875 32.93 18.4193 33.2384 18.4193 34.3919C18.4193 36.6551 24.1851 42.7023 29.0896 45.5832C31.522 47.0122 33.115 48.4541 32.6291 48.7884C30.5243 50.2333 28.3758 54.5631 28.3797 57.3512C28.3847 61.6351 31.738 66.6814 35.0655 67.4139C36.5888 67.7482 38.3093 68.1633 38.8907 68.3339C39.4712 68.5056 40.4997 70.4964 41.1757 72.7576C41.8517 75.0198 44.4006 79.3256 46.8399 82.3273C50.6313 86.9924 51.2755 88.4403 51.2755 92.2901V96.7946H37.5137C27.5394 96.7946 22.4716 97.2317 19.1004 98.3832C12.7223 100.562 5.29083 107.501 2.39949 113.979C0.222028 118.858 0.0457996 120.536 0.0238955 136.71L0 154.173L68.4503 154.429L136.901 154.686V136.824C136.901 118.429 137.044 117.75 140.942 117.75C141.433 117.75 141.956 125.94 142.105 135.949C142.35 152.362 142.548 154.18 144.119 154.482C145.728 154.793 145.861 153.401 145.861 136.331V117.844L150.67 118.415C155.055 118.936 155.799 118.703 159.122 115.779C162.857 112.492 165.774 105.416 165.774 99.6425C165.774 94.3727 158.374 93.1683 150.51 97.1578L145.861 99.5168V95.2848V91.0528L150.176 91.5397C155.951 92.1923 160.208 89.8872 162.863 84.6723C165.535 79.4214 166.578 70.4674 164.655 69.2759C161.959 67.6055 153.17 68.4806 149.44 70.7917L145.861 73.008V68.5056V64.0041L148.829 64.8563C153.173 66.1057 158.365 64.3105 161.2 60.5794C163.972 56.9321 166.093 49.5797 165.606 45.3038C165.294 42.5656 164.995 42.394 160.055 42.1086C155.296 41.8341 154.781 41.5687 154.241 39.1149C152.839 32.7504 151.615 30.1789 147.978 25.9548L144.12 21.4743L140.934 24.8921C136.793 29.3347 133.914 35.0715 133.914 38.8774C133.914 41.885 133.867 41.911 128.504 41.911C123.933 41.911 122.995 42.2263 122.451 43.9487C121.064 48.3284 124.572 59.6504 128.268 62.7258C130.732 64.7745 135.713 65.7764 138.892 64.8623L141.879 64.0041V68.3908V72.7785L138.325 70.677C134.615 68.4826 125.692 67.6604 123.088 69.2739C121.225 70.4285 122.247 78.7179 124.937 84.2881C127.571 89.7425 132.105 92.3111 137.755 91.5517L141.879 90.9969V95.2568V99.5168L137.23 97.1578C130.413 93.6991 121.966 94.3458 121.966 98.3263C121.966 100.079 122.358 100.08 117.486 98.3203C114.775 97.3414 109.127 96.8684 99.8129 96.8385L86.1229 96.7946V91.5527C86.1229 86.9564 86.5122 85.9416 89.2851 83.3202C91.0234 81.6756 93.7166 77.5235 95.2688 74.0927C97.5429 69.0664 98.5355 67.856 100.383 67.856C101.644 67.856 103.993 66.4789 105.601 64.7964C109.52 60.6961 109.712 54.3416 106.036 50.3361C104.571 48.7405 104.004 47.4602 104.656 47.2247C110.707 45.0423 119.816 36.0923 118.371 33.7493C118.093 33.2982 114.549 32.93 110.496 32.93H103.125L102.107 29.188C94.0074 -0.565931 94.6575 -0.000131535 68.4821 0.000866348C53.7297 0.000866348 51.2984 0.237364 47.7151 2.0146ZM49.6705 5.53513C47.966 6.3963 46.0613 8.08572 45.438 9.28817C44.072 11.9216 41.2643 21.2338 41.7034 21.6739C41.8756 21.8455 54.127 21.8665 68.9302 21.7198L95.8463 21.4544L93.9954 15.4142C92.956 12.0194 91.0105 8.30426 89.5539 6.93217C87.0389 4.5612 86.4644 4.48236 69.8661 4.2299C55.9351 4.01735 52.1955 4.25884 49.6705 5.53513ZM39.0918 29.3995C38.831 30.7666 38.8519 32.1207 39.1386 32.4071C39.4254 32.6945 52.8317 32.93 68.9312 32.93H98.203L97.8874 30.1858L97.5728 27.4417L68.5688 27.1772L39.5658 26.9128L39.0918 29.3995ZM141.045 31.3793C139.766 33.2623 138.476 36.6172 138.179 38.8345C137.697 42.4359 137.988 43.1923 140.905 45.9235L144.171 48.981L147.007 46.2568C150.646 42.7622 150.748 38.144 147.313 32.2694C145.921 29.8885 144.464 27.9436 144.077 27.9476C143.69 27.9516 142.325 29.4953 141.045 31.3793ZM26.4492 38.4962C28.5321 41.0119 36.9014 44.8647 45.1483 47.106C51.3711 48.7964 55.6901 49.1756 68.6992 49.1756C86.3748 49.1756 95.7049 47.4053 105.132 42.2642C115.184 36.7809 116.145 36.9216 68.6992 36.9216C29.1404 36.9216 25.2644 37.0663 26.4492 38.4962ZM126.944 48.995C126.944 52.9326 129.625 58.6405 132.099 59.9667C133.147 60.5295 135.441 60.8508 137.195 60.6812C139.88 60.4207 140.437 59.9178 140.712 57.5069C141.246 52.8228 140.028 49.9499 136.625 47.8713C134.859 46.7926 131.959 45.9085 130.18 45.9065C127.225 45.9025 126.944 46.1709 126.944 48.995ZM151.62 47.6368C148.41 49.6316 146.579 53.5742 147.029 57.5209C147.316 60.0355 147.803 60.4088 151.158 60.6862C156.704 61.1432 159.73 57.8182 161.206 49.6446L161.882 45.9025L158.103 45.9295C156.025 45.9434 153.108 46.7118 151.62 47.6368ZM34.5228 53.201C33.332 54.4713 32.3583 56.3923 32.3583 57.47C32.3583 60.3169 35.1511 63.8644 37.3933 63.8644C39.1107 63.8644 39.3278 63.136 39.3278 57.3782C39.3278 50.1715 38.2455 49.2305 34.5228 53.201ZM44.306 59.6134C44.306 70.6371 45.7895 75.369 50.8304 80.4293C62.1837 91.8241 81.2791 89.8483 89.5608 76.4228C92.2799 72.0151 92.5896 70.6281 92.9331 61.3118L93.3124 51.0546L88.9704 52.1572C83.3938 53.5732 54.0722 53.5912 48.5375 52.1822L44.306 51.1045V59.6134ZM97.0749 57.3083C97.0749 63.118 97.294 63.8644 98.9955 63.8644C101.272 63.8644 103.653 61.684 104.582 58.7493C105.42 56.1029 102.215 51.5186 99.2156 51.0716C97.2103 50.7732 97.0749 51.1674 97.0749 57.3083ZM126.944 76.1045C126.944 80.4852 130.083 86.1122 133.139 87.2089C134.506 87.6989 136.808 87.8027 138.255 87.4394C140.556 86.8607 140.883 86.2729 140.883 82.7284C140.883 77.0305 136.699 72.8454 131.003 72.8454C127.084 72.8454 126.944 72.9571 126.944 76.1045ZM151.945 74.2384C148.865 75.9488 146.937 79.5043 146.892 83.5537C146.863 86.22 147.312 86.8926 149.485 87.4394C155.28 88.8963 159.484 84.8519 161.284 76.0885C161.944 72.8743 161.916 72.8454 158.137 72.8803C156.04 72.9003 153.254 73.511 151.945 74.2384ZM55.26 93.9436C55.262 99.5288 57.8497 104.639 62.126 107.502C66.4331 110.386 70.9792 110.382 75.2585 107.492C79.6413 104.531 81.1118 101.448 81.1298 95.182L81.1447 90.0768L74.9219 91.5228C68.9063 92.9198 62.6616 92.4857 57.0004 90.2764C55.504 89.6916 55.258 90.2085 55.26 93.9436ZM126.948 102.532C126.952 106.76 129.781 112.076 132.923 113.762C134.08 114.381 136.344 114.599 137.955 114.245C140.552 113.673 140.883 113.183 140.883 109.91C140.883 105.32 138.635 101.992 134.313 100.181C128.514 97.7535 126.943 98.2545 126.948 102.532ZM153.207 100.201C149.074 102.034 146.857 105.414 146.857 109.881C146.857 113.01 147.24 113.639 149.499 114.207C155.327 115.673 160.383 110.615 161.021 102.682C161.26 99.7064 160.988 99.2604 158.805 99.0568C157.436 98.9281 154.917 99.444 153.207 100.201ZM22.3959 101.718C15.2393 103.901 8.60632 109.785 5.84939 116.398C5.03097 118.362 4.48038 123.305 4.48038 128.695V137.708H13.4411H22.4019V133.89C22.4019 131.109 23.077 129.436 24.891 127.729C27.2845 125.475 27.3801 124.915 27.3801 113.086C27.3801 100.021 27.4488 100.177 22.3959 101.718ZM31.3627 113.26V125.733H35.3452H39.3278V113.26V100.786H35.3452H31.3627V113.26ZM43.3104 113.26V125.733H68.6992H94.088V113.26V100.786H89.7918C85.8869 100.786 85.3493 101.094 83.8817 104.18C80.6329 111.008 72.6648 114.82 64.7505 113.332C60.5031 112.533 54.9902 107.949 53.2688 103.785C52.1586 101.097 51.5772 100.786 47.6703 100.786H43.3104V113.26ZM98.0706 113.26V125.733H102.053H106.036V113.26V100.786H102.053H98.0706V113.26ZM110.018 113.287C110.018 125.6 110.086 125.999 112.507 127.908C114.407 129.405 114.996 130.796 114.996 133.789V137.708H123.957H132.918V128.751C132.918 119.816 132.91 119.787 129.493 116.671C127.61 114.953 125.15 111.588 124.027 109.193C121.926 104.714 118.979 102.561 113.254 101.326L110.018 100.627V113.287ZM27.5792 130.922C26.8216 131.682 26.3845 135.512 26.3845 141.4V150.68H68.6992H111.014V141.4C111.014 135.512 110.577 131.682 109.819 130.922C108.103 129.202 29.2957 129.202 27.5792 130.922ZM32.0168 133.771C30.5622 134.919 29.3714 136.722 29.3714 137.781C29.3714 140.288 32.8113 143.695 35.3452 143.695C36.4404 143.695 38.2326 142.797 39.3278 141.699C44.5669 136.448 37.8542 129.169 32.0168 133.771ZM100.062 132.413C94.095 134.55 95.5128 143.695 101.811 143.695C106.854 143.695 109.012 136.218 104.818 133.274C102.454 131.614 102.347 131.595 100.062 132.413ZM34.3496 138.207C34.3496 139.122 34.8315 139.709 35.4199 139.512C36.0083 139.315 36.4902 138.728 36.4902 138.207C36.4902 137.686 36.0083 137.098 35.4199 136.902C34.8315 136.705 34.3496 137.292 34.3496 138.207ZM100.29 137.895C100.905 139.745 103.049 140.052 103.049 138.29C103.049 137.421 102.339 136.71 101.473 136.71C100.605 136.71 100.073 137.243 100.29 137.895ZM4.48038 146.19V150.68H13.4411H22.4019V146.19V141.699H13.4411H4.48038V146.19ZM114.996 146.19V150.68H123.957H132.918V146.19V141.699H123.957H114.996V146.19Z" fill="#981818"/>
</svg>
