<svg width="191" height="117" viewBox="0 0 191 117" fill="none" xmlns="http://www.w3.org/2000/svg">
<path d="M8.00049 2C8.00049 2 54.0005 26 60.0005 26C66.0005 26 77.5005 14 89.0005 13C92.2087 12.721 93.0005 13.3249 95.0005 14C97.5169 14.8493 101 17 101 17L91.5005 25.5C91.0005 26 88.7005 28.2 87.5005 33C86.3005 37.8 85.3338 48 85.0005 52.5C85.0005 53.8333 86.0005 56.3 90.0005 55.5C94.0005 54.7 99.0005 53.5 101 50.5L106 40L110.75 36.5M115.5 33L110.75 36.5M110.75 36.5L113.5 50.5C113.834 52.1667 116 55 120.5 56.5L154.5 70M154.5 70L189 57.5M154.5 70C157.167 71.1667 161.5 73.5 162.5 75.5C163.422 77.3439 168 85.5 151 88.5L149 87.8803M115.5 77.5L149 87.8803M149 87.8803C150.5 91.9202 150.5 99.9 138.5 99.5L130 97.2333M108.5 91.5L130 97.2333M130 97.2333C130.167 100.322 128.8 106.7 122 107.5L110.5 105M99.0005 102.5L110.5 105M110.5 105C111.834 108 111.8 114.1 101 114.5L87.5005 109.5M87.5005 109.5C85.3338 112.5 79.7005 117.4 74.5005 113C72.5455 111.566 69.9789 108.033 71.8222 103.5M87.5005 109.5L92.0005 102.5C92.6672 100.744 93.2005 96.5867 90.0005 94C86.8005 91.4133 81.6672 92.9222 79.5005 94M79.5005 94L74.5005 99.5C73.1926 100.895 72.3361 102.236 71.8222 103.5M79.5005 94C81.3338 91.6667 83.5005 86.4 77.5005 84C71.5005 81.6 69.3338 83 69.0005 84M69.0005 84L60.0005 94M69.0005 84C68.0005 79.6667 64.1005 71.9 56.5005 75.5M60.0005 94C59.1672 95.8333 58.2005 100.3 61.0005 103.5C63.8005 106.7 69.3816 104.833 71.8222 103.5M60.0005 94C55.2005 99.3333 50.0005 93.5556 48.0005 90C47.8881 88.8763 47.9538 87.2716 48.3813 85.5M56.5005 75.5C56.3338 70.8333 53.4005 62.9 43.0005 68.5M56.5005 75.5C51.4624 77.8865 49.2221 82.016 48.3813 85.5M43.0005 68.5C32.6005 74.1 34.6672 81.1667 37.0005 84C38.7544 85.6667 43.486 88.3 48.3813 85.5M43.0005 68.5L2.00049 57.5" stroke="#981818" stroke-width="4" stroke-linecap="round"/>
<path d="M101.093 16.8899C103.758 13.7223 110.089 7.78685 114.09 9.38551C118.091 10.9842 145.095 22.8749 149.595 22.8734C154.095 22.8719 184.588 2.36162 184.588 2.36162" stroke="#981818" stroke-width="4" stroke-linecap="round"/>
</svg>
