<svg width="192" height="195" viewBox="0 0 192 195" fill="none" xmlns="http://www.w3.org/2000/svg">
<path d="M8.50009 89.5C5.66676 108.333 10.6001 152.3 53.0001 177.5" stroke="#981818" stroke-width="4" stroke-linecap="round"/>
<path d="M84 186.5C102 189.667 144.4 186.9 170 150.5" stroke="#981818" stroke-width="4" stroke-linecap="round"/>
<path d="M109 10.5C139.667 15.5 197.7 44 184.5 118" stroke="#981818" stroke-width="4" stroke-linecap="round"/>
<path d="M19 58C24.5 45.6667 43.4 19.4 75 13" stroke="#981818" stroke-width="4" stroke-linecap="round"/>
<path d="M59 151C68.6667 157.833 94.2 168.8 119 158" stroke="#981818" stroke-width="4" stroke-linecap="round"/>
<path d="M44.0001 63.5C37.3335 72.8333 27.2001 98.3 40.0001 125.5" stroke="#981818" stroke-width="4" stroke-linecap="round"/>
<path d="M129.5 41.9997C121.333 36.1663 97.8 27.9997 69 41.9997" stroke="#981818" stroke-width="4" stroke-linecap="round"/>
<path d="M146.5 141C157 130.5 172.7 100.6 151.5 65" stroke="#981818" stroke-width="4" stroke-linecap="round"/>
<path d="M64.0001 73C62.0001 91.1667 67.4001 126.2 105 121C110 107.167 108.8 78.2 64.0001 73Z" stroke="#981818" stroke-width="4" stroke-linecap="round"/>
<path d="M130 74C134.333 88.5 135.6 118.3 106 121.5" stroke="#981818" stroke-width="4" stroke-linecap="round"/>
<path d="M130 74C123.833 75.6667 109.6 81.8 102 93" stroke="#981818" stroke-width="4" stroke-linecap="round"/>
<path d="M81.5 92.5C90.3333 98 108.2 114.2 109 135" stroke="#981818" stroke-width="4" stroke-linecap="round"/>
<circle cx="181.5" cy="127.5" r="8.5" stroke="#981818" stroke-width="4"/>
<circle cx="127.5" cy="153.5" r="8.5" stroke="#981818" stroke-width="4"/>
<circle cx="75.5" cy="184.5" r="8.5" stroke="#981818" stroke-width="4"/>
<circle cx="45.5" cy="132.5" r="8.5" stroke="#981818" stroke-width="4"/>
<circle cx="10.5" cy="80.5" r="8.5" stroke="#981818" stroke-width="4"/>
<circle cx="60.5" cy="46.5" r="8.5" stroke="#981818" stroke-width="4"/>
<circle cx="145.5" cy="57.5" r="8.5" stroke="#981818" stroke-width="4"/>
<circle cx="84.5" cy="10.5" r="8.5" stroke="#981818" stroke-width="4"/>
</svg>
