<svg width="174" height="174" viewBox="0 0 174 174" fill="none" xmlns="http://www.w3.org/2000/svg">
<path d="M90.5 95V104.5" stroke="#981818" stroke-width="4" stroke-linecap="round"/>
<path d="M97.5 91L104.5 97.5" stroke="#981818" stroke-width="4" stroke-linecap="round"/>
<path d="M102 83.5H111.5" stroke="#981818" stroke-width="4" stroke-linecap="round"/>
<path d="M22.5001 105.999C20.1001 91.1995 29.8334 91.1662 35.0001 92.9995L63.5001 119.999C66.7001 121.999 67.5001 127.166 67.5001 129.499V171.499H31.0001V156C32.2002 150.4 29.5001 146.333 28 145L8.5 123C3.3 117.8 2 110.834 2 108V61C10.8 46.2 19.3334 54.8333 22.5001 61V105.999ZM22.5001 105.999L41.5 125.5" stroke="#981818" stroke-width="4"/>
<path d="M151.5 106.171C153.9 91.3714 144.167 91.338 139 93.1714L110.5 120.171C107.3 122.171 106.5 127.338 106.5 129.671V171.671H143V156.172C141.8 150.572 144.5 146.505 146 145.172L165.5 123.172C170.7 117.972 172 111.005 172 108.172V61.1718C163.2 46.3718 154.667 55.0052 151.5 61.1718V106.171ZM151.5 106.171L132.5 125.672" stroke="#981818" stroke-width="4"/>
<path d="M110.5 62.5L69.5 103.5C77.6667 109 97.6 116.1 112 100.5C126.4 84.9 117 68.6667 110.5 62.5Z" stroke="#981818" stroke-width="4"/>
<path d="M22.5 6.5L49.5 33.5M22.5 6.5C33.9783 6.5 43.7412 7.90727 51.5 9.77533M22.5 6.5C22.8606 13.6218 23.9429 25.0931 26 35.2012M85.5 69.5L76 60M76 60C83.6667 52.6667 93.3 33.8 70.5 17M76 60C56.4 76 39.5 63 33.5 54.5M76 60L67.5 51.5M70.5 17L67.5 51.5M70.5 17C67.558 15.0693 61.0456 12.0736 51.5 9.77533M33.5 54.5L67.5 51.5M33.5 54.5C30.1945 51.3781 27.7461 43.7807 26 35.2012M67.5 51.5L49.5 33.5M49.5 33.5L51.5 9.77533M49.5 33.5L26 35.2012" stroke="#981818" stroke-width="4"/>
<circle cx="121" cy="27.5" r="25.5" stroke="#981818" stroke-width="4"/>
<circle cx="121" cy="27.5" r="25.5" stroke="#981818" stroke-width="4"/>
<circle cx="121" cy="27.5" r="10.5" stroke="#981818" stroke-width="4"/>
</svg>
