<svg width="114" height="203" viewBox="0 0 114 203" fill="none" xmlns="http://www.w3.org/2000/svg">
<path d="M80.6016 176.506C77.6016 175.173 70.8016 168.906 67.6016 154.506C65.1016 138.006 53.1016 104.906 25.1016 104.506C14.2683 104.673 -4.9984 111.206 4.6016 136.006C9.10159 126.173 25.3016 109.606 54.1016 122.006" stroke="#981818" stroke-width="4" stroke-linecap="round"/>
<path d="M37.1016 135.006C36.7682 151.173 41.4016 183.506 62.6016 183.506" stroke="#981818" stroke-width="4" stroke-linecap="round"/>
<path d="M26.6015 122.506C22.1015 148.006 24.7015 197.406 71.1015 191.006V199.006C64.4348 200.839 51.2016 202.406 51.6016 194.006" stroke="#981818" stroke-width="4" stroke-linecap="round"/>
<path d="M54.1016 114.506C57.9349 114.673 66.3016 114.506 69.1016 112.506" stroke="#981818" stroke-width="4" stroke-linecap="round"/>
<path d="M68.1016 138.506C69.7682 115.173 80.7016 67.6059 111.102 64.0059" stroke="#981818" stroke-width="4" stroke-linecap="round"/>
<path d="M75.6016 187.006C86.1016 185.506 104.802 165.606 95.6016 98.0059C95.1016 93.0059 97.3016 79.3059 110.102 64.5059" stroke="#981818" stroke-width="4" stroke-linecap="round"/>
<path d="M62.1016 127.006L60.1016 2.00594C51.2682 1.83927 33.3016 21.3059 32.1016 100.506" stroke="#981818" stroke-width="4" stroke-linecap="round"/>
<path d="M60.1016 2.00613C67.2682 1.6728 83.4016 14.8061 90.6016 70.0061" stroke="#981818" stroke-width="4" stroke-linecap="round"/>
<path d="M43.1016 22.0059C48.9349 24.5059 64.0016 27.6059 77.6016 20.0059" stroke="#981818" stroke-width="4" stroke-linecap="round"/>
<path d="M38.6016 36.0059C45.9349 39.3392 65.1016 43.4059 83.1016 33.0059" stroke="#981818" stroke-width="4" stroke-linecap="round"/>
<path d="M35.6016 52.5059C44.7682 55.6725 67.8016 59.0059 86.6016 47.0059" stroke="#981818" stroke-width="4" stroke-linecap="round"/>
<path d="M33.6016 69.5059C44.9349 72.1725 71.9016 74.2059 89.1016 61.0059" stroke="#981818" stroke-width="4" stroke-linecap="round"/>
<path d="M32.6016 82.5059C38.7682 84.1725 56.5016 86.3059 78.1016 81.5059" stroke="#981818" stroke-width="4" stroke-linecap="round"/>
<path d="M32.1016 96.5059C37.9349 98.8392 54.3016 102.106 73.1016 96.5059" stroke="#981818" stroke-width="4" stroke-linecap="round"/>
<path d="M55.1016 3.50586C50.6016 23.3392 42.6016 72.1059 46.6016 108.506" stroke="#981818" stroke-width="4" stroke-linecap="round"/>
<path d="M66.8516 5.00586C70.3298 17.1972 77.5994 50.0651 78.8516 84.0059" stroke="#981818" stroke-width="4" stroke-linecap="round"/>
</svg>
