<svg width="190" height="160" viewBox="0 0 190 160" fill="none" xmlns="http://www.w3.org/2000/svg">
<path d="M110.814 156.505H173.314C171.814 151.671 166.314 142.005 156.314 142.005C155.648 134.338 149.714 118 131.314 126C124.648 109.499 98.3142 102.502 88.8142 129C81.3142 128.001 66.3142 136.205 62.3142 157.005L79.8142 156.755L97.3142 156.505" stroke="#981818" stroke-width="4" stroke-linecap="round"/>
<path d="M65.3141 133.999H4.31412C2.98078 134.166 0.814117 133.599 2.81412 129.999C5.31412 125.499 10.3142 112.999 23.8142 114.499C28.1475 107.833 41.0142 96.4991 57.8142 104.499C60.4809 100.333 68.5142 92.4996 79.3142 94.4996C79.6475 86.333 85.8142 69.1998 107.814 65.9998C129.814 62.7998 139.314 83.6663 141.314 94.4996C153.314 94.6659 177.514 102.799 178.314 133.999C178.314 134.666 177.114 136 172.314 136C167.514 136 161.981 136 159.814 136" stroke="#981818" stroke-width="4" stroke-linecap="round"/>
<path d="M105.314 58.0004C105.981 44.6671 115.014 20.7004 145.814 31.5004C152.648 34.6669 165.114 46.1 160.314 66.5C158.648 72.6667 152.414 84.8 140.814 84" stroke="#981818" stroke-width="4" stroke-linecap="round"/>
<path d="M79.3142 56H99.3142" stroke="#981818" stroke-width="4" stroke-linecap="round"/>
<path d="M167.814 56H187.814" stroke="#981818" stroke-width="4" stroke-linecap="round"/>
<path d="M132.814 2L133.05 21.9986" stroke="#981818" stroke-width="4" stroke-linecap="round"/>
<path d="M98.3142 26L107.314 34" stroke="#981818" stroke-width="4" stroke-linecap="round"/>
<path d="M167.894 26.0176L158.814 33.9267" stroke="#981818" stroke-width="4" stroke-linecap="round"/>
<path d="M167.808 87.3271L159.11 79.0003" stroke="#981818" stroke-width="4" stroke-linecap="round"/>
<circle cx="103.814" cy="157" r="2" fill="#981818"/>
</svg>
